<?xml version="1.0" encoding="UTF-8"?> <svg xmlns="http://www.w3.org/2000/svg" xmlns:xlink="http://www.w3.org/1999/xlink" width="452px" height="345px" viewBox="0 0 452 345"><!-- Generator: Sketch 48.1 (47250) - http://www.bohemiancoding.com/sketch --><title>5 copy 2</title><desc>Created with Sketch.</desc><defs></defs><g id="Landing-page-2" stroke="none" stroke-width="1" fill="none" fill-rule="evenodd" transform="translate(-949.000000, -7204.000000)"><g id="5-copy-2" transform="translate(949.000000, 7204.000000)"><path d="M139.117868,121 L191.882132,121 C211.274197,121 229.872012,128.681661 243.584272,142.355106 C257.296532,156.02855 265,174.57372 265,193.910891 L265,345 L66,345 L66,193.910891 C66,153.643318 98.7359844,121 139.117868,121 Z" id="Shape" fill="#C5DEFE" fill-rule="nonzero"></path><polygon id="Shape" fill="#FAFAFA" fill-rule="nonzero" points="191 185.053417 163.388278 275 135 182.8678 147.446886 173.906035 141.351648 160.806947 184.018315 158 177.454212 174.841684"></polygon><polygon id="Shape" fill="#E9EDEC" fill-rule="nonzero" points="193 185.891675 181.625 174 180 177.675025 191.142857 190"></polygon><polygon id="Shape" fill="#E9EDEC" fill-rule="nonzero" points="135 180.849624 146.416862 169 148 172.932331 136.560304 185"></polygon><polygon id="Shape" fill="#021867" fill-rule="nonzero" points="164 339 163.689223 341 162 339.892857"></polygon><polygon id="Shape" fill="#021867" fill-rule="nonzero" points="152.933371 310.172673 111 155.359159 124.043673 145 162.745241 277.520721 201.956327 147.133634 215 157.485435 172.578947 311.187988 164.550392 340.264264 161.646137 341 161.238522 340.852853"></polygon><polygon id="Shape" fill="#021867" fill-rule="nonzero" points="163.12 339.4 162.18 339.64 162 339"></polygon><polygon id="Shape" fill="#021867" fill-rule="nonzero" points="180 335.125506 164 339 172.348155 310"></polygon><polygon id="Shape" fill="#FAFAF9" fill-rule="nonzero" points="124.725141 194 148 170.405855 130.305578 127 121 147.755475"></polygon><path d="M285.40178,219.362693 C303.669407,265.365944 335,344 335,344 L283.686441,344 L258.117627,270.517028 C250.787119,307.556811 241.081525,344 241.081525,344 L162,344 L214.537754,156 L241.528686,170.383746 C261.531413,181.043599 277.077105,198.398464 285.40178,219.362693 Z" id="Shape" fill="#2082E8" fill-rule="nonzero"></path><polygon id="Shape" fill="#FAFAF9" fill-rule="nonzero" points="203.282134 196 180 173.34962 198.625707 129 207 149.755475"></polygon><path d="M111.677586,155 L165,344 L85.2282084,344 C85.2282084,344 78.2743813,316.852357 71.7222985,286.778882 L50.4006375,344 L0,344 C0,344 37.9830891,245.438771 54.6006906,202.126271 C59.552673,189.214879 68.933292,178.467871 81.0792864,171.790781 L111.677586,155 Z" id="Shape" fill="#2082E8" fill-rule="nonzero"></path><path d="M196,129.416187 L196,113.96394 L129,113 L129,128.45955 C129,128.45955 138.179065,156.464923 147.358129,175.780233 C156.537194,195.095543 170.30579,196.059482 175.813229,184.470297 C181.320668,172.881111 196,129.416187 196,129.416187 Z" id="Shape" fill="#F7D9B9" fill-rule="nonzero"></path><path d="M200,108.158742 C200,80.6284894 183.208739,49 162.496383,49 C141.784026,49 125,80.6503272 125,108.158742 C125,135.667156 141.791261,158 162.503617,158 C183.215974,158 200,135.688994 200,108.158742 Z" id="Shape" fill="#FFE7CD" fill-rule="nonzero"></path><path d="M198.364733,87.2151782 L197.852755,86.5792346 C197.700335,87.0650288 197.475263,87.5257285 197.184959,87.9461479 C193.363679,93.4649692 183.450612,92.8290256 178.924437,88.7867631 C176.527789,86.6523315 174.806359,83.9111951 172.788129,81.4258981 C171.608356,79.9639587 170.317283,78.5897356 169.182029,77.0985574 C167.293069,74.5474765 165.737496,71.7723551 164.551973,68.8385997 C163.557699,66.4848773 162.971522,62.1575366 161.287191,60.3885899 C157.287832,64.0434384 154.01563,68.977484 150.387269,73.0636046 C147.545424,76.2579423 144.65906,79.4303508 141.587196,82.4127072 C138.619212,85.2854182 134.167236,87.3394431 131.896728,90.7019037 C129.359102,94.4079202 129.359102,98.6767833 127.563471,102.565542 C126.888255,104.027482 124.951645,114.575374 124.165129,112.799118 C123.378614,111.022862 118.778238,101.834572 118.778238,101.834572 C117.478795,99.3163835 116.802476,96.5310807 116.804529,93.7061892 L116.745169,93.7939056 L116.003173,90.8700268 C116.003173,90.8700268 100.302537,28.5987172 156.812955,28.0066318 C226.560582,27.275662 198.364733,87.2151782 198.364733,87.2151782 Z" id="Shape" fill="#001128" fill-rule="nonzero"></path><rect id="Rectangle-path" fill="#E6E6E6" fill-rule="nonzero" x="180" y="115" width="272" height="202" rx="14.99"></rect><path d="M314.5,241 C328.583261,241 340,252.528668 340,266.75 L340,344 L289,344 L289,266.75 C289,252.528668 300.416739,241 314.5,241 Z" id="Shape" fill="#565656" fill-rule="nonzero"></path><ellipse id="Oval" fill="#565656" fill-rule="nonzero" cx="314.5" cy="203.5" rx="14.5" ry="13.5"></ellipse><path d="M236.5,0 L294.5,0 C300.851275,-1.16671022e-15 306,5.14872538 306,11.5 L306,11.7669795 C306,18.1182541 300.851275,23.2669795 294.5,23.2669795 C278.886719,23.2669795 263.273438,23.2669795 247.660156,23.2669795 C244.952533,23.2669795 238.616122,26.1779863 228.650923,32 C232.793916,27.9700936 234.410275,25.0590868 233.5,23.2669795 C233.240064,22.7552299 232.823317,22.3896143 232.249757,22.1701325 L232.249751,22.1701476 C227.883435,20.4993077 225,16.3085746 225,11.6334898 L225,11.5 C225,5.14872538 230.148725,-6.09646619e-16 236.5,-1.77635684e-15 Z" id="Rectangle-66-Copy" fill="#E1E1E1"></path><circle id="Oval-2-Copy-3" fill="#FFFFFF" cx="265" cy="11" r="4"></circle><circle id="Oval-2-Copy-4" fill="#FFFFFF" cx="279" cy="11" r="4"></circle><circle id="Oval-2-Copy-5" fill="#FFFFFF" cx="251" cy="11" r="4"></circle></g></g></svg> 