<svg width="84" height="79" viewBox="0 0 84 79" fill="none" xmlns="http://www.w3.org/2000/svg">
<path d="M0.00288248 70.5515V7.85767C0.00288248 5.68428 0.755209 3.84527 2.25986 2.34061C3.76452 0.83596 5.6314 0.0557694 7.86051 4.14662e-05H62.6968C64.09 4.14662e-05 65.3438 0.501593 66.4584 1.5047L82.0901 17.1364C83.0932 18.2509 83.5947 19.5048 83.5947 20.898V70.5515C83.5947 72.7249 82.8424 74.564 81.3377 76.0686C79.8331 77.5733 77.9662 78.3535 75.7371 78.4092H7.86051C5.68713 78.4092 3.82024 77.629 2.25986 76.0686C0.699481 74.5082 -0.0528454 72.6692 0.00288248 70.5515V70.5515ZM5.26917 70.5515C5.26917 71.3317 5.49208 71.9726 5.9379 72.4742C6.38373 72.9757 7.0246 73.1986 7.86051 73.1429H75.7371C76.5173 73.1429 77.1582 72.92 77.6597 72.4742C78.1613 72.0283 78.3842 71.3875 78.3284 70.5515V23.4893H67.963C65.7339 23.4893 63.867 22.737 62.3624 21.2324C60.8577 19.7277 60.1054 17.8887 60.1054 15.7153V5.26632H7.86051C7.08032 5.26632 6.43945 5.5171 5.9379 6.01865C5.43635 6.5202 5.21344 7.13321 5.26917 7.85767V70.5515V70.5515ZM10.4519 64.0314C10.4519 63.1397 10.8977 62.6939 11.7893 62.6939H71.8083C72.6999 62.6939 73.1457 63.1397 73.1457 64.0314C73.1457 64.923 72.6999 65.341 71.8083 65.2853H11.7893C10.8977 65.2853 10.4519 64.8673 10.4519 64.0314ZM10.4519 56.1738C10.4519 55.2821 10.8977 54.8363 11.7893 54.8363H71.8083C72.6999 54.8363 73.1457 55.2821 73.1457 56.1738C73.1457 57.0654 72.6999 57.5112 71.8083 57.5112H11.7893C10.8977 57.5112 10.4519 57.0654 10.4519 56.1738ZM10.4519 48.3161C10.4519 47.4802 10.8977 47.0622 11.7893 47.0622H71.8083C72.6999 47.0622 73.1457 47.4802 73.1457 48.3161C73.1457 49.152 72.6999 49.5979 71.8083 49.6536H11.7893C10.8977 49.6536 10.4519 49.2078 10.4519 48.3161V48.3161ZM10.4519 40.5421C10.4519 39.6504 10.8977 39.2046 11.7893 39.2046H71.8083C72.6999 39.2046 73.1457 39.6504 73.1457 40.5421C73.1457 41.4337 72.6999 41.8517 71.8083 41.796H11.7893C10.8977 41.796 10.4519 41.378 10.4519 40.5421ZM10.4519 31.347V15.7153C10.4519 14.9351 10.7026 14.2942 11.2042 13.7927C11.7057 13.2911 12.3187 13.0682 13.0432 13.124H31.3498C32.13 13.124 32.743 13.3469 33.1888 13.7927C33.6347 14.2385 33.8854 14.8794 33.9412 15.7153V31.347C33.9412 32.1272 33.6904 32.768 33.1888 33.2696C32.6873 33.7711 32.0743 33.9941 31.3498 33.9383H13.0432C12.3187 33.9383 11.7057 33.7154 11.2042 33.2696C10.7026 32.8238 10.4519 32.1829 10.4519 31.347V31.347ZM15.7181 28.7556H28.7585V18.3067H15.7181V28.7556V28.7556ZM39.2075 32.6844C39.2075 31.7928 39.6254 31.347 40.4613 31.347H71.8083C72.6999 31.347 73.1457 31.7928 73.1457 32.6844C73.1457 33.5761 72.6999 33.9941 71.8083 33.9383H40.4613C39.6254 33.9383 39.2075 33.5204 39.2075 32.6844ZM39.2075 24.8268C39.2075 23.9352 39.6254 23.4893 40.4613 23.4893H53.5852C54.4212 23.4893 54.8391 23.9352 54.8391 24.8268C54.8391 25.7185 54.4212 26.1643 53.5852 26.1643H40.4613C39.6254 26.1643 39.2075 25.7185 39.2075 24.8268ZM39.2075 16.9692C39.2075 16.1333 39.6254 15.7153 40.4613 15.7153H53.5852C54.4212 15.7153 54.8391 16.1333 54.8391 16.9692C54.8391 17.8051 54.4212 18.2509 53.5852 18.3067H40.4613C39.6254 18.3067 39.2075 17.8608 39.2075 16.9692ZM62.6968 15.7153C62.6968 17.1085 63.2262 18.3345 64.285 19.3933C65.3438 20.4522 66.542 20.9537 67.8795 20.898H78.3284L62.6968 5.26632V15.7153V15.7153Z" fill="url(#paint0_linear_2740_88)"/>
<defs>
<linearGradient id="paint0_linear_2740_88" x1="6.30932" y1="77.881" x2="92.1755" y2="10.6764" gradientUnits="userSpaceOnUse">
<stop stop-color="#588AF0"/>
<stop offset="1" stop-color="#A377F0"/>
</linearGradient>
</defs>
</svg>
