<svg width="65" height="78" viewBox="0 0 65 78" fill="none" xmlns="http://www.w3.org/2000/svg">
<path d="M64.9509 56.6752C63.7806 60.5762 61.8858 64.4493 59.2666 68.2945C55.2542 74.4246 51.2418 77.4896 47.2294 77.4896C45.7247 77.4896 43.5513 76.9881 40.7092 75.985C38.0343 74.9819 35.6937 74.4803 33.6875 74.4803C31.7928 74.4803 29.5915 75.0097 27.0838 76.0686C24.576 77.1274 22.5141 77.6568 20.898 77.6568C16.1611 77.6568 11.4799 73.6165 6.85453 65.536C2.28484 57.3997 0 49.5699 0 42.0467C0 34.9692 1.75543 29.1735 5.26629 24.6596C8.77714 20.1456 13.2075 17.8886 18.5574 17.8886C20.7865 17.8886 23.5172 18.3623 26.7494 19.3097C29.9816 20.2571 32.1271 20.7308 33.186 20.7308C34.5792 20.7308 36.8083 20.2013 39.8733 19.1425C43.0498 18.0837 45.7526 17.5543 47.9817 17.5543C51.6598 17.5543 54.9756 18.5574 57.9291 20.5636C59.5453 21.6781 61.1614 23.2385 62.7775 25.2447C60.3254 27.3066 58.5421 29.1457 57.4276 30.7618C55.4214 33.6596 54.4183 36.864 54.4183 40.3748C54.4183 44.2201 55.4771 47.7031 57.5948 50.8238C59.7124 53.9446 62.1645 55.8951 64.9509 56.6752V56.6752ZM47.4802 1.9226C47.4802 3.81734 47.0065 5.935 46.0591 8.27557C45.1675 10.6161 43.7185 12.7617 41.7123 14.7121C40.0405 16.384 38.3687 17.4985 36.6968 18.0558C35.5823 18.4459 33.9662 18.7246 31.8485 18.8917C31.9599 14.2663 33.186 10.2818 35.5265 6.93811C37.8114 3.59443 41.6845 1.28172 47.1458 -1.70931e-05C47.2015 0.111439 47.2572 0.278621 47.313 0.501532C47.3687 0.724444 47.3966 0.891631 47.3966 1.00309C47.3966 1.11454 47.3966 1.28172 47.3966 1.50464C47.3966 1.72755 47.4244 1.86687 47.4802 1.9226Z" fill="#588AF0"/>
</svg>
