<svg width="67" height="70" viewBox="0 0 67 70" fill="none" xmlns="http://www.w3.org/2000/svg">
<path d="M12.299 67.2748L44.3398 49.188L37.4636 41.5669L12.299 67.2748V67.2748ZM0.594367 0.703374C0.227265 1.3646 0 2.12484 0 2.96794V66.1884C0 67.3585 0.437224 68.3626 1.09976 69.1564L32.9755 36.5921L0.594367 0.703374V0.703374ZM64.6982 31.4603L53.5283 25.1549L42.1503 36.7789L50.3074 45.8195L64.6982 37.696C66.0073 37.0343 66.7299 35.8355 66.8735 34.5781C66.7299 33.3208 66.0074 32.122 64.6982 31.4603ZM47.5007 21.7524L8.96604 2.50836e-05L37.6617 31.8039L47.5007 21.7524V21.7524Z" fill="#588AF0"/>
</svg>
