<svg width="80" height="84" viewBox="0 0 80 84" fill="none" xmlns="http://www.w3.org/2000/svg">
<path d="M78.7095 76.0671L72.996 58.9225H66.7266L70.2082 75.6408H8.91037L12.392 58.9225H6.12261L0.404898 76.0671C-1.04539 80.4306 1.52506 84 6.12261 84H72.9961C77.5936 84 80.1641 80.4306 78.7096 76.0671H78.7095ZM60.4572 21.3061C60.4572 9.76629 51.1033 0.408165 39.5593 0.408165C28.0153 0.408165 18.6613 9.76629 18.6613 21.3061C18.6613 41.2637 39.5593 63.102 39.5593 63.102C39.5593 63.102 60.4572 41.2637 60.4572 21.3061ZM28.2744 21.5569C28.2744 15.3251 33.3233 10.2762 39.5593 10.2762C45.7952 10.2762 50.8442 15.3251 50.8442 21.5569C50.8442 27.7928 45.791 32.8418 39.5593 32.8418C33.3275 32.8418 28.2744 27.7887 28.2744 21.5569Z" fill="#222222"/>
</svg>
