<svg width="84" height="84" viewBox="0 0 84 84" fill="none" xmlns="http://www.w3.org/2000/svg">
<path d="M0 26.0836C0 21.8483 1.75543 18.3931 5.26629 15.7182V7.86057C5.26629 5.68718 6.01861 3.8203 7.52327 2.25992C9.02792 0.699537 10.8669 -0.0527829 13.0403 0.00294495C15.2137 0.0586728 17.0806 0.810993 18.641 2.25992C20.2014 3.70884 20.9537 5.57572 20.898 7.86057V15.7182C24.4088 18.3931 26.1642 21.8483 26.1642 26.0836C26.1642 30.3189 24.4088 33.8019 20.898 36.5326V75.7371C20.898 77.9105 20.1456 79.7774 18.641 81.3378C17.1363 82.8982 15.2694 83.6505 13.0403 83.5948C10.8112 83.539 8.97219 82.7867 7.52327 81.3378C6.07434 79.8889 5.32201 78.022 5.26629 75.7371V36.5326C1.75543 33.8576 0 30.3746 0 26.0836ZM5.26629 26.0836C5.26629 26.7523 5.34988 27.4768 5.51706 28.257L5.68425 28.7585C5.90716 29.483 6.24152 30.1239 6.68735 30.6811C7.13317 31.3499 7.69045 31.935 8.35918 32.4366C9.02792 32.9381 9.72452 33.2725 10.449 33.4397C11.3406 33.774 12.2044 33.9412 13.0403 33.9412C13.8762 33.9412 14.7679 33.774 15.7153 33.4397C16.4397 33.2168 17.1363 32.8545 17.8051 32.353C18.4738 31.9072 19.0032 31.3499 19.3933 30.6811C19.8391 30.1239 20.1735 29.483 20.3964 28.7585L20.5636 28.257C20.7865 27.4768 20.898 26.7523 20.898 26.0836C20.898 25.4149 20.7865 24.7183 20.5636 23.9938C20.4521 23.7709 20.3964 23.6037 20.3964 23.4922C20.1735 22.7678 19.8391 22.1269 19.3933 21.5696C19.0032 20.9009 18.4738 20.3158 17.8051 19.8142C17.1363 19.3127 16.4397 18.9783 15.7153 18.8111C14.8236 18.4767 13.932 18.3095 13.0403 18.3095C12.1487 18.3095 11.2849 18.4767 10.449 18.8111C9.66879 19.034 8.97219 19.3962 8.35918 19.8978C7.8019 20.3436 7.24463 20.9009 6.68735 21.5696C6.24152 22.1269 5.90716 22.7678 5.68425 23.4922L5.51706 23.9938C5.34988 24.774 5.26629 25.4706 5.26629 26.0836ZM10.449 75.7371C10.449 76.5173 10.6998 77.1582 11.2013 77.6598C11.7029 78.1613 12.3159 78.4121 13.0403 78.4121C13.7648 78.4121 14.4057 78.1613 14.9629 77.6598C15.5202 77.1582 15.771 76.5173 15.7153 75.7371V38.8731C14.8236 39.0961 13.932 39.2075 13.0403 39.2075C12.1487 39.2075 11.2849 39.0961 10.449 38.8731V75.7371V75.7371ZM10.449 13.3776C11.3406 13.1547 12.2044 13.0433 13.0403 13.0433C13.8762 13.0433 14.7679 13.1547 15.7153 13.3776V7.86057C15.7153 7.08037 15.4645 6.43951 14.9629 5.93796C14.4614 5.43641 13.8205 5.2135 13.0403 5.26923C12.2601 5.32495 11.6471 5.54786 11.2013 5.93796C10.7555 6.32805 10.5047 6.96892 10.449 7.86057V13.3776V13.3776ZM28.7556 57.4305C28.7556 53.1952 30.4832 49.7122 33.9383 46.9816V7.86057C33.9383 5.68718 34.7185 3.8203 36.2789 2.25992C37.8392 0.699537 39.6783 -0.0527829 41.7959 0.00294495C43.9136 0.0586728 45.7526 0.810993 47.313 2.25992C48.8734 3.70884 49.6535 5.57572 49.6535 7.86057V46.9816C53.1087 49.7122 54.8362 53.1952 54.8362 57.4305C54.8362 61.6659 53.1087 65.1488 49.6535 67.8795V75.7371C49.6535 77.9105 48.8734 79.7774 47.313 81.3378C45.7526 82.8982 43.9136 83.6505 41.7959 83.5948C39.6783 83.539 37.8392 82.7867 36.2789 81.3378C34.7185 79.8889 33.9383 78.022 33.9383 75.7371V67.8795C30.4832 65.2046 28.7556 61.7216 28.7556 57.4305V57.4305ZM33.9383 57.4305C33.9383 58.0993 34.0497 58.8237 34.2727 59.6039L34.4398 60.1055C34.6627 60.8299 34.9971 61.4708 35.4429 62.0281C35.8888 62.6968 36.4182 63.282 37.0312 63.7835C37.6442 64.2851 38.3687 64.6194 39.2046 64.7866C40.0405 65.121 40.9043 65.2882 41.7959 65.2882C42.6876 65.2882 43.5513 65.121 44.3873 64.7866C45.1675 64.5637 45.8919 64.2015 46.5606 63.6999C47.1737 63.2541 47.7031 62.6968 48.1489 62.0281C48.5947 61.4708 48.9291 60.8299 49.152 60.1055C49.152 59.994 49.2077 59.8268 49.3192 59.6039C49.5421 58.8237 49.6535 58.0993 49.6535 57.4305C49.6535 56.7618 49.5421 56.0652 49.3192 55.3407L49.152 54.8392C48.9291 54.1147 48.5947 53.4738 48.1489 52.9166C47.7031 52.2478 47.1737 51.6906 46.5606 51.2447C45.8919 50.6875 45.1675 50.3252 44.3873 50.158C43.5513 49.8237 42.6876 49.6565 41.7959 49.6565C40.9043 49.6565 40.0405 49.8237 39.2046 50.158C38.4244 50.3252 37.6999 50.6875 37.0312 51.2447C36.5296 51.6906 36.0002 52.2478 35.4429 52.9166C34.9971 53.4738 34.6627 54.1147 34.4398 54.8392L34.2727 55.3407C34.0497 56.1209 33.9383 56.8175 33.9383 57.4305ZM39.2046 75.7371C39.2046 76.5173 39.4553 77.1582 39.9569 77.6598C40.4584 78.1613 41.0715 78.4121 41.7959 78.4121C42.5204 78.4121 43.1334 78.1613 43.6349 77.6598C44.1365 77.1582 44.3873 76.5173 44.3873 75.7371V70.2201C43.5513 70.443 42.6876 70.5544 41.7959 70.5544C40.9043 70.5544 40.0405 70.443 39.2046 70.2201V75.7371V75.7371ZM39.2046 44.7246C40.0405 44.5017 40.9043 44.3902 41.7959 44.3902C42.6876 44.3902 43.5513 44.5017 44.3873 44.7246V7.86057C44.3873 7.08037 44.1365 6.43951 43.6349 5.93796C43.1334 5.43641 42.5204 5.2135 41.7959 5.26923C41.0715 5.32495 40.4584 5.54786 39.9569 5.93796C39.4553 6.32805 39.2046 6.96892 39.2046 7.86057V44.7246ZM57.5112 26.0836C57.5112 21.8483 59.2387 18.3931 62.6939 15.7182V7.86057C62.6939 5.68718 63.4462 3.8203 64.9509 2.25992C66.4555 0.699537 68.3224 -0.0527829 70.5515 0.00294495C72.7806 0.0586728 74.6196 0.810993 76.0686 2.25992C77.5175 3.70884 78.2698 5.57572 78.3255 7.86057V15.7182C81.8364 18.3931 83.5918 21.8483 83.5918 26.0836C83.5918 30.3189 81.8364 33.8019 78.3255 36.5326V75.7371C78.3255 77.9105 77.5732 79.7774 76.0686 81.3378C74.5639 82.8982 72.7249 83.6505 70.5515 83.5948C68.3781 83.539 66.5112 82.7867 64.9509 81.3378C63.3905 79.8889 62.6382 78.022 62.6939 75.7371V36.5326C59.2387 33.8576 57.5112 30.3746 57.5112 26.0836V26.0836ZM62.6939 26.0836C62.6939 26.7523 62.8053 27.4768 63.0282 28.257L63.1954 28.7585C63.4183 29.483 63.7527 30.1239 64.1985 30.6811C64.5886 31.3499 65.118 31.935 65.7868 32.4366C66.4555 32.9381 67.1521 33.2725 67.8766 33.4397C68.7682 33.774 69.6599 33.9412 70.5515 33.9412C71.4432 33.9412 72.3069 33.774 73.1429 33.4397C73.923 33.2168 74.6196 32.8545 75.2327 32.353C75.9014 31.9072 76.4587 31.3499 76.9045 30.6811C77.3503 30.1239 77.6847 29.483 77.9076 28.7585C77.9076 28.6471 77.9633 28.4799 78.0748 28.257C78.242 27.4768 78.3255 26.7523 78.3255 26.0836C78.3255 25.4149 78.242 24.7183 78.0748 23.9938L77.9076 23.4922C77.6847 22.7678 77.3503 22.1269 76.9045 21.5696C76.4587 20.9009 75.9014 20.3436 75.2327 19.8978C74.6196 19.3962 73.923 19.034 73.1429 18.8111C72.2512 18.4767 71.3874 18.3095 70.5515 18.3095C69.7156 18.3095 68.8239 18.4767 67.8766 18.8111C67.1521 19.034 66.4555 19.3962 65.7868 19.8978C65.118 20.3436 64.5886 20.9009 64.1985 21.5696C63.7527 22.1269 63.4183 22.7678 63.1954 23.4922L63.0282 23.9938C62.8053 24.774 62.6939 25.4706 62.6939 26.0836ZM67.8766 75.7371C67.8766 76.5173 68.1273 77.1582 68.6289 77.6598C69.1304 78.1613 69.7713 78.4121 70.5515 78.4121C71.3317 78.4121 71.9447 78.1613 72.3905 77.6598C72.8363 77.1582 73.0871 76.5173 73.1429 75.7371V38.8731C72.2512 39.0961 71.3874 39.2075 70.5515 39.2075C69.7156 39.2075 68.8239 39.0961 67.8766 38.8731V75.7371V75.7371ZM67.8766 13.3776C68.7682 13.1547 69.6599 13.0433 70.5515 13.0433C71.4432 13.0433 72.3069 13.1547 73.1429 13.3776V7.86057C73.1429 7.08037 72.8921 6.43951 72.3905 5.93796C71.889 5.43641 71.276 5.2135 70.5515 5.26923C69.827 5.32495 69.1862 5.54786 68.6289 5.93796C68.0716 6.32805 67.8208 6.96892 67.8766 7.86057V13.3776V13.3776Z" fill="url(#paint0_linear_2740_90)"/>
<defs>
<linearGradient id="paint0_linear_2740_90" x1="6.30911" y1="83.0345" x2="96.2854" y2="16.986" gradientUnits="userSpaceOnUse">
<stop stop-color="#588AF0"/>
<stop offset="1" stop-color="#A377F0"/>
</linearGradient>
</defs>
</svg>
