<svg width="84" height="74" viewBox="0 0 84 74" fill="none" xmlns="http://www.w3.org/2000/svg">
<path d="M0 31.2636C0 22.57 4.096 15.1861 12.288 9.11172C20.48 3.03738 30.316 0.000210762 41.7959 0.000210762C53.2759 0.000210762 63.1397 3.03738 71.3874 9.11172C79.6352 15.1861 83.7033 22.57 83.5918 31.2636C83.4804 39.9571 79.4122 47.3689 71.3874 53.499C63.3626 59.6291 53.4988 62.6662 41.7959 62.6105C39.1767 62.6105 36.5018 62.4154 33.7711 62.0254C32.155 63.9758 29.6751 66.1492 26.3314 68.5455C22.9878 70.9418 19.5884 72.4743 16.1332 73.1431H15.3809C14.7122 73.1431 14.1549 72.9202 13.7091 72.4743C13.2632 72.0285 13.0403 71.4712 13.0403 70.8025C13.0403 70.4681 13.0961 70.1338 13.2075 69.7994C13.2075 69.7437 13.5697 69.1585 14.2942 68.044C15.0187 66.9294 15.5202 66.1214 15.7989 65.6198C16.0775 65.1182 16.4397 64.2823 16.8856 63.112C17.3314 61.9418 17.6936 60.9387 17.9722 60.1027C18.2509 59.2668 18.3623 58.3752 18.3066 57.4278V57.2606C12.6224 54.307 8.16414 50.5733 4.93192 46.0593C1.6997 41.5454 0.0557279 36.6134 0 31.2636H0ZM5.26629 31.2636C5.26629 35.4431 6.60375 39.4277 9.27869 43.2172C11.9536 47.0067 15.771 50.0996 20.7308 52.4959C22.5698 53.499 23.4893 55.0872 23.4893 57.2606V57.7622C23.4893 60.047 22.9042 62.6105 21.7339 65.4526C25.0775 63.3907 27.7246 61.1616 29.6751 58.7653C30.6782 57.4278 32.0435 56.7591 33.7711 56.7591C33.994 56.7591 34.2169 56.8148 34.4398 56.9262C36.9476 57.2606 39.3996 57.4278 41.7959 57.4278C51.9384 57.4278 60.5762 54.8643 67.7094 49.7374C74.8426 44.6104 78.3813 38.4525 78.3255 31.2636C78.2698 24.0747 74.7311 17.9446 67.7094 12.8734C60.6877 7.80211 52.0498 5.23863 41.7959 5.1829C31.542 5.12717 22.9042 7.69066 15.8824 12.8734C8.86073 18.056 5.32201 24.1861 5.26629 31.2636V31.2636ZM13.0403 31.2636C13.0403 26.3038 15.8824 22.0127 21.5667 18.3904C27.2509 14.7681 33.994 12.9848 41.7959 13.0405C42.6876 13.0405 43.1334 13.4585 43.1334 14.2944C43.1334 15.1303 42.6876 15.5762 41.7959 15.6319C34.8299 15.6319 28.7277 17.2201 23.4893 20.3966C18.2509 23.5731 15.6595 27.1954 15.7153 31.2636C15.7153 32.1552 15.2694 32.601 14.3778 32.601C13.4861 32.601 13.0403 32.1552 13.0403 31.2636V31.2636Z" fill="url(#paint0_linear_2740_92)"/>
<defs>
<linearGradient id="paint0_linear_2740_92" x1="6.30927" y1="72.6504" x2="87.5702" y2="4.47142" gradientUnits="userSpaceOnUse">
<stop stop-color="#588AF0"/>
<stop offset="1" stop-color="#A377F0"/>
</linearGradient>
</defs>
</svg>
