<svg width="84" height="70" viewBox="0 0 84 70" fill="none" xmlns="http://www.w3.org/2000/svg">
<path d="M81.4894 31.6955C77.6581 25.0778 70.6921 20.8982 63.0295 20.8982H61.2881C56.0636 5.57305 39.6935 -3.13446 24.0201 1.04513C15.6609 3.13493 9.04318 8.35942 4.51535 15.3254C-0.0124913 22.2913 -1.05747 30.9988 1.03232 39.0097C2.42555 43.8859 4.51535 48.0655 7.99828 51.8968C9.39151 53.29 11.4813 53.6383 12.8744 52.2451C14.2676 50.852 14.6159 48.7621 13.2228 47.369C10.7847 44.5826 8.69486 41.0996 7.99828 37.2683C6.25681 30.9989 7.30171 24.7295 10.7847 18.8085C13.9193 13.2357 19.4922 9.05607 25.7615 7.66293C38.6487 4.17991 52.2323 12.1908 55.367 25.0779C55.7153 26.4711 57.1085 27.516 58.85 27.516H63.0296C68.2541 27.516 72.782 30.3024 75.2201 34.8303C76.9615 37.965 77.3099 41.7962 76.265 45.2793C75.2201 48.7623 72.782 51.897 69.6473 53.6384C67.9058 54.6833 67.2091 56.7731 68.254 58.5146C68.9506 59.5595 69.9955 60.2561 71.3887 60.2561C72.0853 60.2561 72.4336 60.2561 73.1302 59.9077C78.0064 57.1214 81.4894 52.9418 83.2309 47.369C84.6241 42.4928 83.9274 36.5717 81.4894 31.6955V31.6955ZM44.5697 32.3921C44.2214 32.0437 43.8731 31.6955 43.5248 31.6955C42.8282 31.3472 41.7833 31.3472 40.7384 31.6955C40.3901 32.0438 40.0419 32.0438 39.6935 32.3921L25.7615 46.3241C24.3683 47.7173 24.3683 49.8071 25.7615 51.2002C27.1548 52.5934 29.2446 52.5935 30.6377 51.2002L38.6486 43.1894V66.1771C38.6486 68.2669 40.0418 69.6602 42.1316 69.6602C44.2214 69.6602 45.6146 68.2669 45.6146 66.1771V43.1894L53.6255 51.2002C54.322 51.8968 55.3669 52.2451 56.0636 52.2451C56.7602 52.2451 57.8051 51.8968 58.5017 51.2002C59.8949 49.807 59.8949 47.7172 58.5017 46.3241L44.5697 32.3921Z" fill="url(#paint0_linear_2740_81)"/>
<defs>
<linearGradient id="paint0_linear_2740_81" x1="6.33545" y1="69.1909" x2="84.3355" y2="0.190919" gradientUnits="userSpaceOnUse">
<stop stop-color="#588AF0"/>
<stop offset="1" stop-color="#A377F0"/>
</linearGradient>
</defs>
</svg>
