<svg width="84" height="63" viewBox="0 0 84 63" fill="none" xmlns="http://www.w3.org/2000/svg">
<path d="M0 18.6409C0 17.0806 0.501551 15.8267 1.50465 14.8793L14.8793 1.67181C15.8267 0.557249 17.0249 -2.86102e-05 18.4738 -2.86102e-05H65.118C66.567 -2.86102e-05 67.7651 0.557249 68.7125 1.67181L82.0872 14.8793C83.0903 15.8267 83.5918 17.0248 83.5918 18.4738C83.5918 19.7555 83.146 20.9537 82.2544 22.0682L45.7247 60.9384C44.6102 62.1087 43.3006 62.6938 41.7959 62.6938C40.2913 62.6938 38.9817 62.1087 37.8671 60.9384L1.33747 22.0682C0.445823 21.0651 0 19.9227 0 18.6409H0ZM5.26629 18.3066H16.4676L23.4893 11.2849L17.4707 6.18577L5.26629 18.3066ZM7.52327 20.8979L33.186 48.3161L16.802 20.8979H7.52327V20.8979ZM19.7277 20.8979L39.0374 52.9136L32.6844 20.8979H19.7277V20.8979ZM20.062 18.3066H32.0157L25.4955 12.8731L20.062 18.3066ZM20.2292 5.26626L25.3283 9.44585L29.5915 5.26626H20.2292ZM27.2509 11.1177L33.9383 16.6347L39.8733 11.7864L32.6844 5.8514L27.2509 11.1177ZM35.2758 20.8979L41.7959 53.4152L48.3161 20.8979H35.2758V20.8979ZM35.9445 18.3066H47.6473L41.7959 13.5418L35.9445 18.3066ZM35.9445 5.26626L41.7959 10.1146L47.4802 5.26626H35.9445V5.26626ZM43.8857 11.7864L49.6535 16.6347L56.3409 11.1177L50.9074 5.8514L43.8857 11.7864ZM44.5544 52.9136L63.8642 20.8979H50.9074L44.5544 52.9136ZM50.4895 48.3161L76.0686 20.8979H66.7899L50.4895 48.3161ZM51.5762 18.3066H63.5298L58.0963 12.8731L51.5762 18.3066ZM54.0003 5.26626L58.2635 9.44585L63.3626 5.26626H54.0003ZM60.1025 11.2849L67.1242 18.3066H78.242L66.1211 6.18577L60.1025 11.2849Z" fill="url(#paint0_linear_2740_84)"/>
<defs>
<linearGradient id="paint0_linear_2740_84" x1="6.30911" y1="62.2715" x2="77.0209" y2="-6.94272" gradientUnits="userSpaceOnUse">
<stop stop-color="#588AF0"/>
<stop offset="1" stop-color="#A377F0"/>
</linearGradient>
</defs>
</svg>
