<svg width="84" height="55" viewBox="0 0 84 55" fill="none" xmlns="http://www.w3.org/2000/svg">
<path d="M0 44.3872V10.4489C0 7.6068 1.0031 5.15477 3.00931 3.09284C5.01551 1.03091 7.4954 -5.72205e-05 10.449 -5.72205e-05H73.1429C76.0964 -5.72205e-05 78.5763 1.03091 80.5825 3.09284C82.5887 5.15477 83.5918 7.6068 83.5918 10.4489V44.3872C83.5918 47.3408 82.5887 49.8207 80.5825 51.8269C78.5763 53.8331 76.0964 54.8362 73.1429 54.8362H10.449C7.4954 54.8362 5.01551 53.8331 3.00931 51.8269C1.0031 49.8207 0 47.3408 0 44.3872ZM5.26629 44.3872C5.26629 45.8361 5.76784 47.0621 6.77094 48.0652C7.77404 49.0683 9.00005 49.5978 10.449 49.6535H73.1429C74.5361 49.6535 75.7621 49.1241 76.8209 48.0652C77.8797 47.0064 78.3813 45.7804 78.3255 44.3872L57.9291 29.0899L46.5606 37.5327C45.1117 38.6472 43.5235 39.2045 41.7959 39.2045C40.0684 39.2045 38.4801 38.6472 37.0312 37.5327L25.6627 29.0899L5.26629 44.3872ZM5.26629 41.1271L23.4893 27.4181L5.26629 13.709V41.1271ZM5.26629 10.4489L25.6627 25.8298L27.9197 27.4181L38.703 35.6101C39.5947 36.2788 40.6256 36.6132 41.7959 36.6132C42.9662 36.6132 43.9972 36.2788 44.8888 35.6101L78.3255 10.4489C78.3255 9.05572 77.824 7.82971 76.8209 6.77088C75.8178 5.71205 74.5918 5.2105 73.1429 5.26622H10.449C9.05578 5.26622 7.82977 5.76778 6.77094 6.77088C5.71211 7.77398 5.21056 9 5.26629 10.4489ZM60.1025 27.4181L78.3255 41.1271V13.709L60.1025 27.4181Z" fill="#222222"/>
</svg>
