<svg width="84" height="84" viewBox="0 0 84 84" fill="none" xmlns="http://www.w3.org/2000/svg">
<path d="M0.181721 41.4649C0.739 38.7343 2.27152 36.8395 4.77927 35.7807L40.2222 21.5701C39.5535 20.4555 39.2191 19.3131 39.2191 18.1428C39.2191 16.3038 39.86 14.7155 41.1417 13.3781L44.7362 9.78362C46.0736 8.50188 47.634 7.86101 49.4173 7.86101C51.2006 7.86101 52.761 8.50188 54.0985 9.78362L74.1605 29.8457C75.4422 31.1831 76.0831 32.7435 76.0831 34.5268C76.0831 36.3101 75.4422 37.8705 74.1605 39.2079L70.566 42.9696C69.2286 44.1399 67.6961 44.725 65.9685 44.725C64.6868 44.725 63.4886 44.3906 62.374 43.7219L48.3306 78.6633C47.3832 81.2825 45.4885 82.8708 42.6464 83.428C42.2006 83.5395 41.699 83.5952 41.1417 83.5952H40.8074C38.7454 83.5952 37.0179 82.8429 35.6247 81.3382L2.35511 48.4866C0.348905 46.5362 -0.375558 44.1956 0.181721 41.4649V41.4649ZM5.36442 42.3844C5.19723 43.2761 5.42014 44.0563 6.03315 44.725L39.2191 77.5766C39.7764 78.1339 40.3615 78.4125 40.9745 78.4125H41.6433C42.5349 78.1896 43.2037 77.6323 43.6495 76.7407L55.8539 45.7281C52.6217 42.3287 49.1944 39.9603 45.5721 38.6228C41.9498 37.2853 37.8816 36.3658 33.3677 35.8643C28.8537 35.3627 25.4265 34.7219 23.0859 33.9417L6.86907 40.4618C6.03315 40.7962 5.5316 41.4371 5.36442 42.3844V42.3844ZM20.9125 44.3906C20.9125 42.9974 21.4419 41.7714 22.5007 40.7126C23.5596 39.6538 24.7856 39.1522 26.1788 39.2079C27.572 39.2637 28.798 39.7652 29.8568 40.7126C30.9157 41.66 31.4172 42.886 31.3615 44.3906C31.3057 45.8953 30.8042 47.1213 29.8568 48.0687C28.9094 49.0161 27.6834 49.5455 26.1788 49.6569C24.6741 49.7684 23.4481 49.239 22.5007 48.0687C21.5534 46.8984 21.024 45.6724 20.9125 44.3906ZM23.5038 44.3906C23.5038 45.1708 23.7546 45.8117 24.2562 46.3133C24.7577 46.8148 25.3986 47.0377 26.1788 46.982C26.959 46.9263 27.572 46.7034 28.0178 46.3133C28.4636 45.9232 28.7144 45.2823 28.7701 44.3906C28.8259 43.499 28.5751 42.886 28.0178 42.5516C27.4605 42.2173 26.8475 41.9665 26.1788 41.7993C25.51 41.6321 24.8692 41.8829 24.2562 42.5516C23.6432 43.2204 23.3924 43.8334 23.5038 44.3906ZM27.0983 32.3534C28.7701 32.6878 30.9992 33.05 33.7856 33.4401C37.0736 33.7745 39.6649 34.1367 41.5597 34.5268C43.4544 34.9169 45.8786 35.8364 48.8322 37.2853C51.7857 38.7343 54.5164 40.6847 57.0242 43.1368L60.4514 34.6104L65.049 39.2079C65.662 39.821 66.2471 39.821 66.8044 39.2079L70.566 35.4463C71.2348 34.889 71.2348 34.276 70.566 33.6073L50.3368 13.3781C49.7795 12.8208 49.1665 12.8208 48.4978 13.3781L44.7362 17.1397C44.2346 17.8084 44.2346 18.4214 44.7362 18.9787L49.3337 23.4927L27.0983 32.3534ZM31.3615 60.1059C31.3615 59.3257 31.6123 58.6848 32.1138 58.1833C32.6154 57.6817 33.2284 57.431 33.9528 57.431C34.6773 57.431 35.3182 57.6817 35.8754 58.1833C36.4327 58.6848 36.6835 59.3257 36.6278 60.1059C36.572 60.8861 36.3213 61.4991 35.8754 61.9449C35.4296 62.3908 34.7887 62.6415 33.9528 62.6973C33.1169 62.753 32.5039 62.5022 32.1138 61.9449C31.7237 61.3877 31.4729 60.7746 31.3615 60.1059ZM36.6278 48.3195C36.6278 46.4804 37.2408 44.9201 38.4668 43.6383C39.6928 42.3566 41.2532 41.7436 43.1479 41.7993C45.0427 41.855 46.5752 42.468 47.7455 43.6383C48.9158 44.8086 49.5566 46.369 49.6681 48.3195C49.7795 50.2699 49.1387 51.8303 47.7455 53.0006C46.3523 54.1709 44.8198 54.7839 43.1479 54.8396C41.4761 54.8954 39.9157 54.2823 38.4668 53.0006C37.0179 51.7189 36.4049 50.1585 36.6278 48.3195ZM39.2191 48.3195C39.2191 49.434 39.6092 50.3535 40.3894 51.078C41.1696 51.8025 42.0891 52.1925 43.1479 52.2483C44.2068 52.304 45.1263 51.9139 45.9065 51.078C46.6866 50.2421 47.0767 49.3226 47.0767 48.3195C47.0767 47.3164 46.6866 46.3968 45.9065 45.5609C45.1263 44.725 44.2068 44.3349 43.1479 44.3906C42.0891 44.4464 41.1696 44.8365 40.3894 45.5609C39.6092 46.2854 39.2191 47.2049 39.2191 48.3195V48.3195ZM70.566 6.52354C70.566 4.68452 71.1791 3.12414 72.4051 1.8424C73.6311 0.56066 75.1915 -0.0523481 77.0862 0.00337982C78.981 0.0591077 80.5413 0.672116 81.7674 1.8424C82.9934 3.01269 83.6064 4.57307 83.6064 6.52354C83.6064 8.47402 82.9934 10.0344 81.7674 11.2047C80.5413 12.375 78.981 12.988 77.0862 13.0437C75.1915 13.0994 73.6311 12.4864 72.4051 11.2047C71.1791 9.92294 70.566 8.36256 70.566 6.52354V6.52354ZM73.1574 20.9013C73.1574 20.1211 73.4082 19.5081 73.9097 19.0623C74.4113 18.6165 75.0243 18.3657 75.7487 18.31C76.4732 18.2543 77.1141 18.505 77.6714 19.0623C78.2286 19.6196 78.4794 20.2326 78.4237 20.9013C78.368 21.5701 78.1172 22.1831 77.6714 22.7404C77.2255 23.2976 76.5847 23.5484 75.7487 23.4927C74.9128 23.437 74.2998 23.1862 73.9097 22.7404C73.5196 22.2945 73.2689 21.6815 73.1574 20.9013ZM73.1574 6.52354C73.1574 7.6381 73.5475 8.55761 74.3277 9.28207C75.1079 10.0065 76.0274 10.3966 77.0862 10.4524C78.145 10.5081 79.0645 10.118 79.8447 9.28207C80.6249 8.44616 81.015 7.52665 81.015 6.52354C81.015 5.52044 80.6249 4.60093 79.8447 3.76501C79.0645 2.9291 78.145 2.539 77.0862 2.59473C76.0274 2.65046 75.1079 3.04055 74.3277 3.76501C73.5475 4.48948 73.1574 5.40899 73.1574 6.52354Z" fill="url(#paint0_linear_2754_5)"/>
<defs>
<linearGradient id="paint0_linear_2754_5" x1="6.3102" y1="83.0321" x2="96.2894" y2="16.9681" gradientUnits="userSpaceOnUse">
<stop stop-color="#588AF0"/>
<stop offset="1" stop-color="#A377F0"/>
</linearGradient>
</defs>
</svg>
